<svg xmlns="http://www.w3.org/2000/svg" width="24" height="24" viewBox="0 0 24 24" fill="none"
stroke="currentColor" stroke-width="1.8" stroke-linecap="round" stroke-linejoin="round">
<path d="M9.2 7.2A3 3 0 0 1 12 5a3.2 3.2 0 0 1 3.1 2.4A2.8 2.8 0 0 1 18 10a2.9 2.9 0 0 1-1.5 2.5"/>
<path d="M7.5 12.5A2.9 2.9 0 0 1 6 10a2.8 2.8 0 0 1 2.9-2.6"/>
<path d="M9 19a3 3 0 0 1-3-3v-1.2A2.8 2.8 0 0 1 7.5 12.5"/>
<path d="M15 19a3 3 0 0 0 3-3v-1.2A2.8 2.8 0 0 0 16.5 12.5"/>
<path d="M10 9.5c.4.7 1.1 1.1 2 1.1s1.6-.4 2-1.1"/>
<path d="M11 19v-2.2"/>
<path d="M13 19v-2.2"/>
</svg>