<svg xmlns="http://www.w3.org/2000/svg" width="64" height="64" viewBox="0 0 64 64" fill="none">
  <rect width="64" height="64" rx="14" fill="#1C2A45"/>
  <path d="M20 22c0-2.2 1.8-4 4-4h16c2.2 0 4 1.8 4 4v20c0 2.2-1.8 4-4 4H24c-2.2 0-4-1.8-4-4V22z" stroke="#9ED0FF" stroke-width="2"/>
  <path d="M26 26h12M26 32h12M26 38h8" stroke="#F6D18B" stroke-width="2" stroke-linecap="round"/>
  <path d="M20 24h-2c-2.2 0-4 1.8-4 4v16c0 2.2 1.8 4 4 4h2" stroke="#86A1D4" stroke-width="2"/>
  <path d="M44 24h2c2.2 0 4 1.8 4 4v16c0 2.2-1.8 4-4 4h-2" stroke="#86A1D4" stroke-width="2"/>
</svg>
