<svg xmlns="http://www.w3.org/2000/svg" viewBox="0 0 900 900" role="img" aria-label="Roots card background">
  <defs>
    <linearGradient id="bg" x1="0" y1="0" x2="1" y2="1">
      <stop offset="0%" stop-color="#0b1d1a"/>
      <stop offset="100%" stop-color="#1a2b2a"/>
    </linearGradient>
    <linearGradient id="accent" x1="0" y1="1" x2="1" y2="0">
      <stop offset="0%" stop-color="#8bd3c7" stop-opacity="0.4"/>
      <stop offset="100%" stop-color="#34d399" stop-opacity="0.3"/>
    </linearGradient>
    <pattern id="grid" width="60" height="60" patternUnits="userSpaceOnUse">
      <path d="M60 0H0V60" fill="none" stroke="#9ca3af" stroke-opacity="0.12" stroke-width="2"/>
    </pattern>
  </defs>

  <rect width="900" height="900" fill="url(#bg)"/>
  <rect width="900" height="900" fill="url(#grid)"/>

  <circle cx="200" cy="220" r="150" fill="url(#accent)"/>
  <circle cx="760" cy="180" r="190" fill="#5eead4" fill-opacity="0.12"/>
  <circle cx="720" cy="730" r="230" fill="#34d399" fill-opacity="0.14"/>

  <path d="M150 560c60-80 140-120 260-140" stroke="#a7f3d0" stroke-opacity="0.5" stroke-width="10" fill="none"/>
  <path d="M180 600c50-60 110-90 200-110" stroke="#6ee7b7" stroke-opacity="0.4" stroke-width="8" fill="none"/>

  <rect x="520" y="360" width="210" height="220" fill="#0b1d1a" fill-opacity="0.4"/>
  <rect x="540" y="380" width="170" height="180" fill="none" stroke="#5eead4" stroke-opacity="0.35" stroke-width="6"/>
  <path d="M560 420h120" stroke="#d1fae5" stroke-opacity="0.45" stroke-width="6"/>
  <path d="M560 460h140" stroke="#d1fae5" stroke-opacity="0.28" stroke-width="6"/>
  <path d="M560 500h110" stroke="#d1fae5" stroke-opacity="0.25" stroke-width="6"/>
</svg>
